<?xml version="1.0" encoding="UTF-8"?>
<svg xmlns="http://www.w3.org/2000/svg" version="1.1" xmlns:xlink="http://www.w3.org/1999/xlink" viewBox="0 0 1080.8 1080.8">
  <defs>
    <style>
      .cls-1 {
        fill: url(#linear-gradient-2);
      }

      .cls-2 {
        fill: url(#linear-gradient-4);
      }

      .cls-3 {
        fill: url(#linear-gradient-3);
      }

      .cls-4 {
        fill: url(#linear-gradient-5);
      }

      .cls-5 {
        fill: url(#linear-gradient-6);
      }

      .cls-6 {
        fill: url(#linear-gradient);
      }
    </style>
    <linearGradient id="linear-gradient" x1="282" y1="4.3" x2="282" y2="1054.7" gradientUnits="userSpaceOnUse">
      <stop offset="0" stop-color="#71cc3a"/>
      <stop offset="1" stop-color="#ccff3a"/>
    </linearGradient>
    <linearGradient id="linear-gradient-2" x1="895.1" y1="4.3" x2="895.1" y2="1054.7" xlink:href="#linear-gradient"/>
    <linearGradient id="linear-gradient-3" x1="454" y1="4.3" x2="454" y2="1054.7" xlink:href="#linear-gradient"/>
    <linearGradient id="linear-gradient-4" x1="308.9" y1="4.3" x2="308.9" y2="1054.7" xlink:href="#linear-gradient"/>
    <linearGradient id="linear-gradient-5" x1="595.8" y1="4.3" x2="595.8" y2="1054.7" xlink:href="#linear-gradient"/>
    <linearGradient id="linear-gradient-6" x1="639.3" y1="4.3" x2="639.3" y2="1054.7" xlink:href="#linear-gradient"/>
  </defs>
  <!-- Generator: Adobe Illustrator 28.7.1, SVG Export Plug-In . SVG Version: 1.2.0 Build 142)  -->
  <g>
    <g id="Layer_1">
      <g>
        <path class="cls-6" d="M204,574.7c0-.4-.2-.8-.3-1.3-5.8-25.5-9.4-51.9-10.9-78.8-.7-13.3-.9-26.8-.5-40.4C199,232.6,355.6,52.1,558.3,14c8.1-1.5,7.3-13.4-1-13.7-.2,0-.5,0-.7,0C258.3-8.7,9.2,225.9.2,524.2c-4.1,135.8,42.5,261.4,122.4,358.8l38-57.6c48.8-73.9,63-164.4,43.3-250.7Z"/>
        <path class="cls-1" d="M915.9,359.9c-2.9-26-6.9-49.7-12.7-67.5-.5-1.5.3-2.9,1.8-3.4,8.9-2.8,18.7-9.6,27-17.9,33.8-33.8,65.1-119.9,31.3-153.6-33.7-33.7-119.8-2.5-153.6,31.3-8.3,8.3-15.1,18.1-17.9,27-.5,1.5-1.9,2.3-3.4,1.8-17.9-5.8-41.6-9.8-67.5-12.7,74.2-61,304.4-183.7,341.5-146.6,37.1,37.1-85.7,267.3-146.6,341.5Z"/>
        <path class="cls-3" d="M553.9,684.7c-17.9,10.9-35.3,20.8-51.7,29-2.9,1.4-5.5,2.7-8.1,4l-3.8,1.9c-4.1,2-8.1,3.6-13.8,7.2-.5,0-61.7-60.7-61.7-60.7,0,0-60.6-61.3-60.7-61.7,3.6-5.7,5.2-9.7,7.2-13.8l1.9-3.8c1.3-2.6,2.6-5.2,4-8.1,8.2-16.5,18.1-33.8,29-51.7,52.5,17.8,90.3,54.4,94.8,59l4,4c4.5,4.5,41.2,42.4,59,94.8Z"/>
        <path class="cls-2" d="M462.1,736.2l-296.7,187.8c-2.8,1.9-5.8,1.1-7.7-.8s-2.7-4.9-.8-7.7l187.8-296.7s8.8,40.7-27.5,109.2c-25.8,48.6-111.1,146.9-111.3,147,.1-.1,98.4-85.5,147-111.3,68.5-36.3,109.2-27.5,109.2-27.5Z"/>
        <path class="cls-4" d="M863.2,585.4c-8.2,6.6-192,153.6-206.1,164.8-16.3,13.1-27.7,18.5-33.9,19.4l22.2-40,17.9-31.9c19.5-35.1,38-68.4,39.9-71.9.5-.7,1-1.5,1.4-2.5,3.5-5.9,8.6-14.7,7.6-24.7-.2-1.8-.5-4.2-11.5-20.9-10.4,8.6-20.1,16.4-29.3,23.7-31.9,25.5-63.1,48.1-93,67.8-19.9-53.6-55.6-91.4-63.5-99.2l-4-4c-7.8-7.8-45.5-43.6-99.2-63.5,19.7-29.9,42.3-61.2,67.8-93,7.3-9.2,15.1-18.9,23.7-29.3-16.7-11-19.1-11.3-20.9-11.5-10-1-18.8,4.1-24.7,7.6-.9.4-1.8.9-2.5,1.4-3.5,1.9-36.8,20.5-71.9,39.9l-31.9,17.9-40,22.2c.9-6.2,6.2-17.5,19.4-33.9,11.2-14.1,158.2-197.9,164.8-206.1,9.7-12,98.4-19.8,182.8-16.4,18.1.6,18.5,1.9,35.5,3.7-46.7,34.3-70.9,49.4-135.8,111.3,22.2-12.1,155.5-93.2,186.7-110.2,4.2-2.4,9-2.1,12.8,0l.4-.4c41.6,18.1,48.5,25.7,60.1,37.2,11.6,11.6,19.2,18.5,37.2,60.1l-.4.4c2.1,3.8,2.3,8.6,0,12.8-17,31.2-98.1,164.5-110.2,186.7,61.9-64.9,77.1-89,111.3-135.8,1.9,17,3.1,17.3,3.7,35.5,3.4,84.4-4.4,173.1-16.4,182.8Z"/>
        <path class="cls-5" d="M506.1,876.9c.4,0,.8.2,1.3.3,25.5,5.8,51.9,9.4,78.8,10.9,13.3.7,26.8.9,40.4.5,221.6-6.7,402.1-163.3,440.3-366,1.5-8.1,13.4-7.3,13.7,1,0,.2,0,.5,0,.7,9,298.3-225.6,547.4-524,556.4-135.8,4.1-261.4-42.5-358.8-122.4l57.6-38c73.9-48.8,164.4-63,250.7-43.3Z"/>
      </g>
    </g>
  </g>
</svg>
